<?xml version="1.0" standalone="no"?>
<!DOCTYPE svg PUBLIC "-//W3C//DTD SVG 20010904//EN"
 "http://www.w3.org/TR/2001/REC-SVG-20010904/DTD/svg10.dtd">
<svg version="1.0" xmlns="http://www.w3.org/2000/svg"
 width="300.000000pt" height="300.000000pt" viewBox="0 0 300.000000 300.000000"
 preserveAspectRatio="xMidYMid meet">
<metadata>
Created by potrace 1.10, written by Peter Selinger 2001-2011
</metadata>
<g transform="translate(0.000000,300.000000) scale(0.100000,-0.100000)"
fill="#ffffff" stroke="none">
<path d="M441 2809 c-66 -13 -125 -45 -171 -95 -62 -68 -85 -124 -85 -214 0
-181 134 -315 315 -314 128 1 227 64 282 179 23 50 28 73 28 136 0 64 -5 85
-30 137 -17 33 -47 75 -68 93 -73 64 -180 95 -271 78z"/>
<path d="M2084 1980 c-88 -9 -129 -22 -218 -68 -66 -34 -158 -114 -203 -177
l-22 -30 0 118 -1 117 -260 0 -260 0 0 -132 c-1 -117 -1 -1512 0 -1595 l0 -33
269 0 270 0 3 523 c4 509 4 524 26 589 29 87 74 145 137 177 64 33 217 42 276
17 75 -31 118 -84 150 -181 10 -30 14 -175 18 -580 l6 -540 270 0 270 0 3 510
c3 544 -4 707 -40 847 -45 179 -139 308 -272 373 -111 55 -275 80 -422 65z"/>
<path d="M230 1060 l0 -880 270 0 270 0 0 880 0 880 -270 0 -270 0 0 -880z"/>
</g>
</svg>
