<?xml version="1.0" standalone="no"?>
<!DOCTYPE svg PUBLIC "-//W3C//DTD SVG 20010904//EN"
 "http://www.w3.org/TR/2001/REC-SVG-20010904/DTD/svg10.dtd">
<svg version="1.0" xmlns="http://www.w3.org/2000/svg"
 width="225.000000pt" height="225.000000pt" viewBox="0 0 225.000000 225.000000"
 preserveAspectRatio="xMidYMid meet">
<metadata>
Created by potrace 1.10, written by Peter Selinger 2001-2011
</metadata>
<g transform="translate(0.000000,225.000000) scale(0.100000,-0.100000)"
fill="#ffffff" stroke="none">
<path d="M415 2236 c-39 -18 -367 -350 -391 -396 -26 -48 -24 -185 5 -304 73
-302 267 -612 581 -926 261 -261 527 -443 789 -539 173 -64 369 -85 441 -47
49 26 379 354 397 395 17 40 10 81 -21 110 -30 28 -490 299 -521 307 -58 15
-95 -4 -192 -98 -86 -83 -96 -90 -125 -84 -208 41 -661 487 -720 708 l-12 48
81 83 c85 87 103 125 88 184 -10 40 -263 514 -289 540 -27 29 -73 37 -111 19z"/>
</g>
</svg>
